# xmcd CD database file
# Copyright (C) 1993-1996 Ti Kan
#
# Track frame offsets:
#	150
#	7710
#	21377
#	39220
#	47555
#	67067
#	79835
#	93550
#	104787
#	118375
#	131825
#	145217
#	158912
#	171482
#	180302
#	191597
#	202175
#	213307
#	222505
#	233577
#	244050
#	253067
#	269972
#	286200
#	307720
#
# Disc length: 4285 seconds
#
# Revision: 1
# Processed by: cddbd v1.4b41PL1 Copyright (c) Steve Scherf et al.
# Submitted via: xmcd 2.0
#
DISCID=7b10bb19
DTITLE=Various Artist - Americana Volume 3
DYEAR=1900
DGENRE=
TTITLE0=Ballad of Davy Crockett
TTITLE1=Don't Take Your Guns to Town
TTITLE2=Big Iron
TTITLE3=The Ballad of Paladin
TTITLE4=El Paso
TTITLE5=Cross the Brazos at Waco
TTITLE6=Long Black Veil
TTITLE7=Life to Go
TTITLE8=Big Bad John
TTITLE9=Tennessee Flat Top Box
TTITLE10=Wolverton Mountain
TTITLE11=Saginaw Michigan
TTITLE12=North to Alaska
TTITLE13=Twenty Miles from Shore
TTITLE14=The Battle of New Orleans
TTITLE15=Soldier's Joy
TTITLE16=Waterloo
TTITLE17=The Ballad of Jed Clampett
TTITLE18=May the Bird of Paradise Fly Up Your Nose
TTITLE19=Flowers on the Wall
TTITLE20=If You Can't Bite, Don't Growl
TTITLE21=A Boy Named Sue
TTITLE22=The Devil Went Down to Georgia
TTITLE23=Pancho and Lefty
TTITLE24=Highwayman
EXTD=
EXTT0=
EXTT1=
EXTT2=
EXTT3=
EXTT4=
EXTT5=
EXTT6=
EXTT7=
EXTT8=
EXTT9=
EXTT10=
EXTT11=
EXTT12=
EXTT13=
EXTT14=
EXTT15=
EXTT16=
EXTT17=
EXTT18=
EXTT19=
EXTT20=
EXTT21=
EXTT22=
EXTT23=
EXTT24=
PLAYORDER=
